<?xml version="1.0" encoding="UTF-8"?><svg id="a" xmlns="http://www.w3.org/2000/svg" width="320" height="80" viewBox="0 0 320 80"><defs><style>.b{stroke-width:3px;}.b,.c,.d,.e,.f{fill:none;stroke:#000;stroke-miterlimit:10;}.c{stroke-width:.75px;}.e{stroke-width:.25px;}.f{stroke-width:.5px;}</style></defs><g><g><line class="d" x1="9.7" y1="55.5" x2="9.7" y2="24.5"/><line class="f" x1="14.5" y1="55.5" x2="14.5" y2="24.5"/><line class="e" x1="11.7" y1="55.5" x2="11.7" y2="24.5"/><line class="d" x1="19.9" y1="55.5" x2="19.9" y2="24.5"/><line class="d" x1="17.2" y1="55.5" x2="17.2" y2="24.5"/><line class="b" x1="6.6" y1="55.5" x2="6.6" y2="24.5"/><line class="f" x1="13.6" y1="55.5" x2="13.6" y2="24.5"/><line class="d" x1="22.7" y1="55.5" x2="22.7" y2="24.5"/><line class="f" x1="24.1" y1="55.5" x2="24.1" y2="24.5"/><line class="f" x1="25.5" y1="55.5" x2="25.5" y2="24.5"/><line class="f" x1="26.4" y1="55.5" x2="26.4" y2="24.5"/><line class="e" x1="27.5" y1="55.5" x2="27.5" y2="24.5"/><line class="b" x1="29.1" y1="55.5" x2="29.1" y2="24.5"/><line class="f" x1="32.2" y1="55.5" x2="32.2" y2="24.5"/><line class="f" x1="33.4" y1="55.5" x2="33.4" y2="24.5"/><line class="d" x1="34.9" y1="55.5" x2="34.9" y2="24.5"/><line class="e" x1="36.8" y1="55.5" x2="36.8" y2="24.5"/><line class="f" x1="37.7" y1="55.5" x2="37.7" y2="24.5"/><line class="d" x1="38.7" y1="55.5" x2="38.7" y2="24.5"/><line class="e" x1="39.7" y1="55.5" x2="39.7" y2="24.5"/><line class="c" x1="41.6" y1="55.5" x2="41.6" y2="24.5"/><line class="f" x1="43.6" y1="55.5" x2="43.6" y2="24.5"/><line class="f" x1="44.4" y1="55.5" x2="44.4" y2="24.5"/><line class="d" x1="45.8" y1="55.5" x2="45.8" y2="24.5"/></g><g><line class="d" x1="51.5" y1="55.5" x2="51.5" y2="24.5"/><line class="f" x1="56.3" y1="55.5" x2="56.3" y2="24.5"/><line class="e" x1="53.6" y1="55.5" x2="53.6" y2="24.5"/><line class="d" x1="61.7" y1="55.5" x2="61.7" y2="24.5"/><line class="d" x1="59" y1="55.5" x2="59" y2="24.5"/><line class="b" x1="48.4" y1="55.5" x2="48.4" y2="24.5"/><line class="f" x1="55.5" y1="55.5" x2="55.5" y2="24.5"/><line class="d" x1="64.6" y1="55.5" x2="64.6" y2="24.5"/><line class="f" x1="65.9" y1="55.5" x2="65.9" y2="24.5"/><line class="f" x1="67.3" y1="55.5" x2="67.3" y2="24.5"/><line class="f" x1="68.2" y1="55.5" x2="68.2" y2="24.5"/><line class="e" x1="69.3" y1="55.5" x2="69.3" y2="24.5"/><line class="b" x1="70.9" y1="55.5" x2="70.9" y2="24.5"/><line class="f" x1="74" y1="55.5" x2="74" y2="24.5"/><line class="f" x1="75.2" y1="55.5" x2="75.2" y2="24.5"/><line class="d" x1="76.7" y1="55.5" x2="76.7" y2="24.5"/><line class="e" x1="78.6" y1="55.5" x2="78.6" y2="24.5"/><line class="f" x1="79.5" y1="55.5" x2="79.5" y2="24.5"/><line class="d" x1="80.5" y1="55.5" x2="80.5" y2="24.5"/><line class="e" x1="81.5" y1="55.5" x2="81.5" y2="24.5"/><line class="c" x1="83.4" y1="55.5" x2="83.4" y2="24.5"/><line class="f" x1="85.4" y1="55.5" x2="85.4" y2="24.5"/><line class="f" x1="86.2" y1="55.5" x2="86.2" y2="24.5"/><line class="d" x1="87.6" y1="55.5" x2="87.6" y2="24.5"/></g><g><line class="d" x1="99.4" y1="55.5" x2="99.4" y2="24.5"/><line class="f" x1="104.2" y1="55.5" x2="104.2" y2="24.5"/><line class="e" x1="101.5" y1="55.5" x2="101.5" y2="24.5"/><line class="d" x1="109.6" y1="55.5" x2="109.6" y2="24.5"/><line class="d" x1="106.9" y1="55.5" x2="106.9" y2="24.5"/><line class="b" x1="96.3" y1="55.5" x2="96.3" y2="24.5"/><line class="f" x1="103.4" y1="55.5" x2="103.4" y2="24.5"/><line class="d" x1="112.5" y1="55.5" x2="112.5" y2="24.5"/><line class="f" x1="113.8" y1="55.5" x2="113.8" y2="24.5"/><line class="f" x1="115.2" y1="55.5" x2="115.2" y2="24.5"/><line class="f" x1="116.1" y1="55.5" x2="116.1" y2="24.5"/><line class="e" x1="117.2" y1="55.5" x2="117.2" y2="24.5"/><line class="b" x1="118.8" y1="55.5" x2="118.8" y2="24.5"/><line class="f" x1="121.9" y1="55.5" x2="121.9" y2="24.5"/><line class="f" x1="123.1" y1="55.5" x2="123.1" y2="24.5"/><line class="d" x1="124.6" y1="55.5" x2="124.6" y2="24.5"/><line class="e" x1="126.5" y1="55.5" x2="126.5" y2="24.5"/><line class="f" x1="127.4" y1="55.5" x2="127.4" y2="24.5"/><line class="d" x1="128.4" y1="55.5" x2="128.4" y2="24.5"/><line class="e" x1="129.4" y1="55.5" x2="129.4" y2="24.5"/><line class="c" x1="131.3" y1="55.5" x2="131.3" y2="24.5"/><line class="f" x1="133.3" y1="55.5" x2="133.3" y2="24.5"/><line class="f" x1="134.1" y1="55.5" x2="134.1" y2="24.5"/><line class="d" x1="135.5" y1="55.5" x2="135.5" y2="24.5"/></g><g><line class="d" x1="152" y1="55.5" x2="152" y2="24.5"/><line class="f" x1="156.8" y1="55.5" x2="156.8" y2="24.5"/><line class="e" x1="154.1" y1="55.5" x2="154.1" y2="24.5"/><line class="d" x1="162.2" y1="55.5" x2="162.2" y2="24.5"/><line class="d" x1="159.5" y1="55.5" x2="159.5" y2="24.5"/><line class="b" x1="148.9" y1="55.5" x2="148.9" y2="24.5"/><line class="f" x1="156" y1="55.5" x2="156" y2="24.5"/><line class="d" x1="165.1" y1="55.5" x2="165.1" y2="24.5"/><line class="f" x1="166.4" y1="55.5" x2="166.4" y2="24.5"/><line class="f" x1="167.8" y1="55.5" x2="167.8" y2="24.5"/><line class="f" x1="168.7" y1="55.5" x2="168.7" y2="24.5"/><line class="e" x1="169.8" y1="55.5" x2="169.8" y2="24.5"/><line class="b" x1="171.4" y1="55.5" x2="171.4" y2="24.5"/><line class="f" x1="174.5" y1="55.5" x2="174.5" y2="24.5"/><line class="f" x1="175.7" y1="55.5" x2="175.7" y2="24.5"/><line class="d" x1="177.2" y1="55.5" x2="177.2" y2="24.5"/><line class="e" x1="179.1" y1="55.5" x2="179.1" y2="24.5"/><line class="f" x1="180.1" y1="55.5" x2="180.1" y2="24.5"/><line class="d" x1="181" y1="55.5" x2="181" y2="24.5"/><line class="e" x1="182" y1="55.5" x2="182" y2="24.5"/><line class="c" x1="183.9" y1="55.5" x2="183.9" y2="24.5"/><line class="f" x1="185.9" y1="55.5" x2="185.9" y2="24.5"/><line class="f" x1="186.7" y1="55.5" x2="186.7" y2="24.5"/><line class="d" x1="188.1" y1="55.5" x2="188.1" y2="24.5"/></g><g><line class="d" x1="193.9" y1="55.5" x2="193.9" y2="24.5"/><line class="f" x1="198.6" y1="55.5" x2="198.6" y2="24.5"/><line class="e" x1="195.9" y1="55.5" x2="195.9" y2="24.5"/><line class="d" x1="204.1" y1="55.5" x2="204.1" y2="24.5"/><line class="d" x1="201.4" y1="55.5" x2="201.4" y2="24.5"/><line class="b" x1="190.8" y1="55.5" x2="190.8" y2="24.5"/><line class="f" x1="197.8" y1="55.5" x2="197.8" y2="24.5"/><line class="d" x1="206.9" y1="55.5" x2="206.9" y2="24.5"/><line class="f" x1="208.3" y1="55.5" x2="208.3" y2="24.5"/><line class="f" x1="209.6" y1="55.5" x2="209.6" y2="24.5"/><line class="f" x1="210.6" y1="55.5" x2="210.6" y2="24.5"/><line class="e" x1="211.7" y1="55.5" x2="211.7" y2="24.5"/><line class="b" x1="213.3" y1="55.5" x2="213.3" y2="24.5"/><line class="f" x1="216.4" y1="55.5" x2="216.4" y2="24.5"/><line class="f" x1="217.6" y1="55.5" x2="217.6" y2="24.5"/><line class="d" x1="219.1" y1="55.5" x2="219.1" y2="24.5"/><line class="e" x1="220.9" y1="55.5" x2="220.9" y2="24.5"/><line class="f" x1="221.9" y1="55.5" x2="221.9" y2="24.5"/><line class="d" x1="222.9" y1="55.5" x2="222.9" y2="24.5"/><line class="e" x1="223.9" y1="55.5" x2="223.9" y2="24.5"/><line class="c" x1="225.8" y1="55.5" x2="225.8" y2="24.5"/><line class="f" x1="227.7" y1="55.5" x2="227.7" y2="24.5"/><line class="f" x1="228.6" y1="55.5" x2="228.6" y2="24.5"/><line class="d" x1="230" y1="55.5" x2="230" y2="24.5"/></g><g><line class="d" x1="233.1" y1="55.5" x2="233.1" y2="24.5"/><line class="f" x1="237.8" y1="55.5" x2="237.8" y2="24.5"/><line class="e" x1="235.1" y1="55.5" x2="235.1" y2="24.5"/><line class="d" x1="243.3" y1="55.5" x2="243.3" y2="24.5"/><line class="d" x1="240.6" y1="55.5" x2="240.6" y2="24.5"/><line class="b" x1="230" y1="55.5" x2="230" y2="24.5"/><line class="f" x1="237" y1="55.5" x2="237" y2="24.5"/><line class="d" x1="246.1" y1="55.5" x2="246.1" y2="24.5"/><line class="f" x1="247.5" y1="55.5" x2="247.5" y2="24.5"/><line class="f" x1="248.8" y1="55.5" x2="248.8" y2="24.5"/><line class="f" x1="249.8" y1="55.5" x2="249.8" y2="24.5"/><line class="e" x1="250.9" y1="55.5" x2="250.9" y2="24.5"/><line class="b" x1="252.5" y1="55.5" x2="252.5" y2="24.5"/><line class="f" x1="255.6" y1="55.5" x2="255.6" y2="24.5"/><line class="f" x1="256.8" y1="55.5" x2="256.8" y2="24.5"/><line class="d" x1="258.3" y1="55.5" x2="258.3" y2="24.5"/><line class="e" x1="260.1" y1="55.5" x2="260.1" y2="24.5"/><line class="f" x1="261.1" y1="55.5" x2="261.1" y2="24.5"/><line class="d" x1="262.1" y1="55.5" x2="262.1" y2="24.5"/><line class="e" x1="263.1" y1="55.5" x2="263.1" y2="24.5"/><line class="c" x1="265" y1="55.5" x2="265" y2="24.5"/><line class="f" x1="267" y1="55.5" x2="267" y2="24.5"/><line class="f" x1="267.8" y1="55.5" x2="267.8" y2="24.5"/><line class="d" x1="269.2" y1="55.5" x2="269.2" y2="24.5"/></g><g><line class="d" x1="278.9" y1="55.5" x2="278.9" y2="24.5"/><line class="f" x1="283.6" y1="55.5" x2="283.6" y2="24.5"/><line class="e" x1="280.9" y1="55.5" x2="280.9" y2="24.5"/><line class="d" x1="289" y1="55.5" x2="289" y2="24.5"/><line class="d" x1="286.3" y1="55.5" x2="286.3" y2="24.5"/><line class="f" x1="282.8" y1="55.5" x2="282.8" y2="24.5"/><line class="d" x1="291.9" y1="55.5" x2="291.9" y2="24.5"/><line class="f" x1="293.2" y1="55.5" x2="293.2" y2="24.5"/><line class="f" x1="294.6" y1="55.5" x2="294.6" y2="24.5"/><line class="f" x1="295.6" y1="55.5" x2="295.6" y2="24.5"/><line class="e" x1="296.6" y1="55.5" x2="296.6" y2="24.5"/><line class="b" x1="298.3" y1="55.5" x2="298.3" y2="24.5"/><line class="f" x1="301.3" y1="55.5" x2="301.3" y2="24.5"/><line class="f" x1="302.6" y1="55.5" x2="302.6" y2="24.5"/><line class="d" x1="304" y1="55.5" x2="304" y2="24.5"/><line class="e" x1="305.9" y1="55.5" x2="305.9" y2="24.5"/><line class="f" x1="306.9" y1="55.5" x2="306.9" y2="24.5"/><line class="d" x1="307.9" y1="55.5" x2="307.9" y2="24.5"/><line class="e" x1="308.8" y1="55.5" x2="308.8" y2="24.5"/></g></g><g><path d="M26.49,60.45h-1.47v1.46h1.64v.44h-2.13v-4.04h2.04v.44h-1.56v1.28h1.47v.43Z"/><path d="M27.27,58.09h.49v4.26h-.49v-4.26Z"/><path d="M28.59,58.09h.49v4.26h-.49v-4.26Z"/><path d="M30.19,60.99c.01,.71,.44,1.01,.93,1.01,.35,0,.57-.07,.75-.15l.08,.38c-.17,.08-.47,.18-.9,.18-.84,0-1.34-.59-1.34-1.46s.48-1.57,1.27-1.57c.89,0,1.12,.83,1.12,1.37,0,.11-.01,.19-.02,.25h-1.91Zm1.45-.38c0-.34-.13-.86-.69-.86-.5,0-.72,.49-.76,.86h1.44Z"/><path d="M32.73,60.23c0-.3,0-.54-.02-.79h.44l.03,.48h.01c.13-.28,.45-.55,.9-.55,.38,0,.96,.24,.96,1.24v1.73h-.49v-1.67c0-.47-.16-.86-.63-.86-.33,0-.58,.25-.66,.54-.02,.07-.03,.16-.03,.25v1.75h-.49v-2.12Z"/><path d="M37.54,58.31v1.69h1.83v-1.69h.49v4.04h-.49v-1.89h-1.83v1.89h-.49v-4.04h.49Z"/><path d="M40.97,60.99c.01,.71,.44,1.01,.93,1.01,.35,0,.57-.07,.75-.15l.08,.38c-.17,.08-.47,.18-.9,.18-.84,0-1.34-.59-1.34-1.46s.48-1.57,1.27-1.57c.89,0,1.12,.83,1.12,1.37,0,.11-.01,.19-.02,.25h-1.91Zm1.45-.38c0-.34-.13-.86-.69-.86-.5,0-.72,.49-.76,.86h1.44Z"/><path d="M44.06,58.63c0,.18-.12,.32-.31,.32-.17,0-.3-.14-.3-.32s.13-.33,.31-.33,.3,.14,.3,.33Zm-.55,3.72v-2.9h.49v2.9h-.49Z"/><path d="M44.82,60.23c0-.3,0-.54-.02-.79h.44l.03,.48h.01c.13-.28,.45-.55,.9-.55,.38,0,.96,.24,.96,1.24v1.73h-.49v-1.67c0-.47-.16-.86-.63-.86-.33,0-.58,.25-.66,.54-.02,.07-.03,.16-.03,.25v1.75h-.49v-2.12Z"/><path d="M49.08,60.53v.39h-1.39v-.39h1.39Z"/><path d="M49.6,61.71c.22,.14,.54,.26,.88,.26,.5,0,.79-.28,.79-.69,0-.38-.2-.59-.71-.8-.62-.23-1-.58-1-1.15,0-.63,.49-1.1,1.22-1.1,.39,0,.67,.1,.84,.2l-.13,.43c-.12-.07-.38-.19-.72-.19-.52,0-.71,.33-.71,.61,0,.38,.23,.56,.75,.78,.64,.26,.97,.59,.97,1.19,0,.62-.43,1.16-1.33,1.16-.36,0-.76-.11-.97-.26l.12-.44Z"/><path d="M54.29,59.59l.24-.36,.22,.16-.24,.37c.26,.27,.41,.66,.41,1.11,0,1.07-.69,1.54-1.33,1.54-.25,0-.5-.07-.7-.2l-.24,.37-.21-.18,.24-.36c-.26-.26-.42-.65-.42-1.12,0-.96,.6-1.54,1.34-1.54,.25,0,.49,.07,.69,.21Zm-.22,.36c-.12-.11-.28-.17-.48-.17-.61,0-.85,.6-.85,1.13,0,.25,.06,.52,.2,.73h.01l1.11-1.68Zm-.94,1.9c.13,.12,.29,.17,.45,.17,.52,0,.86-.47,.86-1.13,0-.2-.04-.48-.19-.71h-.01l-1.11,1.67Z"/><path d="M55.54,60.35c0-.34,0-.64-.02-.91h.43l.02,.57h.02c.12-.39,.42-.64,.75-.64,.06,0,.1,0,.14,.02v.5c-.05-.01-.1-.02-.17-.02-.35,0-.6,.28-.66,.68-.01,.07-.02,.16-.02,.25v1.55h-.49v-2Z"/><path d="M57.59,60.99c.01,.71,.44,1.01,.93,1.01,.35,0,.57-.07,.75-.15l.08,.38c-.17,.08-.47,.18-.9,.18-.84,0-1.34-.59-1.34-1.46s.48-1.57,1.27-1.57c.89,0,1.12,.83,1.12,1.37,0,.11-.01,.19-.02,.25h-1.91Zm1.45-.38c0-.34-.13-.86-.69-.86-.5,0-.72,.49-.76,.86h1.44Z"/><path d="M60.13,60.23c0-.3,0-.54-.02-.79h.44l.03,.48h.01c.13-.28,.45-.55,.9-.55,.38,0,.96,.24,.96,1.24v1.73h-.49v-1.67c0-.47-.16-.86-.63-.86-.33,0-.58,.25-.66,.54-.02,.07-.03,.16-.03,.25v1.75h-.49v-2.12Z"/><path d="M63.17,61.81c.15,.1,.4,.21,.65,.21,.36,0,.53-.19,.53-.43s-.14-.39-.51-.53c-.49-.19-.72-.47-.72-.82,0-.47,.35-.85,.94-.85,.27,0,.52,.08,.67,.18l-.12,.38c-.11-.07-.3-.17-.56-.17-.29,0-.46,.18-.46,.4,0,.24,.16,.35,.52,.49,.47,.19,.71,.44,.71,.88,0,.51-.37,.87-1.02,.87-.3,0-.57-.08-.76-.2l.12-.4Z"/><path d="M65.74,60.99c.01,.71,.44,1.01,.93,1.01,.35,0,.57-.07,.75-.15l.08,.38c-.17,.08-.47,.18-.9,.18-.84,0-1.34-.59-1.34-1.46s.48-1.57,1.27-1.57c.89,0,1.12,.83,1.12,1.37,0,.11-.01,.19-.02,.25h-1.91Zm1.45-.38c0-.34-.13-.86-.69-.86-.5,0-.72,.49-.76,.86h1.44Z"/><path d="M68.27,60.23c0-.3,0-.54-.02-.79h.44l.03,.48h.01c.13-.28,.45-.55,.9-.55,.38,0,.96,.24,.96,1.24v1.73h-.49v-1.67c0-.47-.16-.86-.63-.86-.33,0-.58,.25-.66,.54-.02,.07-.03,.16-.03,.25v1.75h-.49v-2.12Z"/></g><g><path d="M102.83,57.76h-.01l-.63,.37-.1-.4,.8-.46h.42v3.9h-.48v-3.41Z"/><path d="M104.92,60.79c.11,.01,.23,0,.4-.02,.29-.04,.56-.17,.76-.38,.24-.23,.42-.58,.48-1.04h-.02c-.2,.26-.49,.42-.86,.42-.66,0-1.08-.53-1.08-1.19,0-.74,.5-1.39,1.25-1.39s1.21,.65,1.21,1.64c0,.86-.27,1.46-.63,1.83-.28,.29-.67,.47-1.06,.52-.18,.03-.34,.04-.46,.03v-.43Zm.18-2.24c0,.49,.28,.83,.7,.83,.33,0,.59-.17,.72-.41,.03-.05,.04-.11,.04-.19,0-.67-.23-1.18-.75-1.18-.42,0-.72,.4-.72,.95Z"/><path d="M107.8,60.79c.11,.01,.23,0,.4-.02,.29-.04,.56-.17,.76-.38,.24-.23,.42-.58,.48-1.04h-.02c-.2,.26-.49,.42-.86,.42-.66,0-1.08-.53-1.08-1.19,0-.74,.5-1.39,1.25-1.39s1.21,.65,1.21,1.64c0,.86-.27,1.46-.63,1.83-.28,.29-.67,.47-1.06,.52-.18,.03-.34,.04-.46,.03v-.43Zm.18-2.24c0,.49,.28,.83,.7,.83,.33,0,.59-.17,.72-.41,.03-.05,.04-.11,.04-.19,0-.67-.23-1.18-.75-1.18-.42,0-.72,.4-.72,.95Z"/><path d="M110.68,60.79c.11,.01,.23,0,.4-.02,.29-.04,.56-.17,.76-.38,.24-.23,.42-.58,.48-1.04h-.02c-.2,.26-.49,.42-.86,.42-.66,0-1.08-.53-1.08-1.19,0-.74,.5-1.39,1.25-1.39s1.21,.65,1.21,1.64c0,.86-.27,1.46-.63,1.83-.28,.29-.67,.47-1.06,.52-.18,.03-.34,.04-.46,.03v-.43Zm.18-2.24c0,.49,.28,.83,.7,.83,.33,0,.59-.17,.72-.41,.03-.05,.04-.11,.04-.19,0-.67-.23-1.18-.75-1.18-.42,0-.72,.4-.72,.95Z"/><path d="M114.57,59.35v.39h-1.39v-.39h1.39Z"/><path d="M117.42,59.17c0,1.33-.46,2.06-1.27,2.06-.71,0-1.2-.71-1.21-2,0-1.31,.53-2.03,1.27-2.03s1.21,.73,1.21,1.97Zm-1.98,.06c0,1.01,.29,1.59,.74,1.59,.51,0,.75-.63,.75-1.62s-.23-1.59-.74-1.59c-.43,0-.75,.56-.75,1.62Z"/><path d="M118.94,57.76h-.01l-.63,.37-.1-.4,.8-.46h.42v3.9h-.48v-3.41Z"/><path d="M122.05,59.35v.39h-1.39v-.39h1.39Z"/><path d="M123.54,57.76h-.01l-.63,.37-.1-.4,.8-.46h.42v3.9h-.48v-3.41Z"/><path d="M127.43,57.64c-.1,0-.23,0-.37,.02-.77,.14-1.19,.74-1.27,1.38h.02c.17-.25,.48-.45,.88-.45,.65,0,1.1,.5,1.1,1.26,0,.71-.46,1.37-1.21,1.37s-1.29-.65-1.29-1.66c0-.77,.26-1.37,.62-1.76,.3-.32,.71-.52,1.17-.58,.15-.02,.27-.03,.36-.03v.43Zm-.14,2.25c0-.56-.3-.89-.75-.89-.3,0-.57,.2-.71,.48-.03,.06-.06,.14-.06,.23,.01,.64,.29,1.12,.8,1.12,.43,0,.71-.38,.71-.94Z"/></g><g><path d="M158.97,61.16v-1.06h-1.7v-.35l1.63-2.49h.53v2.42h.51v.41h-.51v1.06h-.47Zm0-1.48v-1.3c0-.2,0-.41,.02-.61h-.02c-.11,.23-.2,.4-.3,.58l-.89,1.33h1.2Z"/><path d="M162.5,57.71h-1.39l-.14,1c.08-.01,.16-.02,.3-.02,.28,0,.56,.07,.79,.21,.29,.17,.52,.51,.52,1,0,.76-.57,1.33-1.36,1.33-.4,0-.74-.12-.91-.24l.12-.4c.15,.1,.45,.22,.78,.22,.47,0,.87-.32,.87-.85,0-.5-.32-.86-1.05-.86-.21,0-.37,.02-.5,.04l.24-1.87h1.75v.44Z"/><path d="M164.39,61.16v-.32l.39-.4c.93-.95,1.35-1.45,1.36-2.04,0-.4-.18-.76-.72-.76-.33,0-.61,.18-.77,.33l-.16-.37c.25-.23,.61-.4,1.03-.4,.79,0,1.12,.58,1.12,1.13,0,.72-.49,1.3-1.26,2.09l-.29,.29h1.64v.45h-2.33Z"/><path d="M169.69,59.17c0,1.33-.46,2.06-1.27,2.06-.71,0-1.2-.71-1.21-2,0-1.31,.53-2.03,1.27-2.03s1.21,.73,1.21,1.97Zm-1.98,.06c0,1.01,.29,1.59,.74,1.59,.5,0,.75-.63,.75-1.62s-.23-1.59-.74-1.59c-.43,0-.75,.56-.75,1.62Z"/><path d="M173.52,57.71h-1.39l-.14,1c.08-.01,.16-.02,.3-.02,.28,0,.56,.07,.79,.21,.29,.17,.52,.51,.52,1,0,.76-.57,1.33-1.36,1.33-.4,0-.74-.12-.91-.24l.12-.4c.15,.1,.45,.22,.78,.22,.47,0,.87-.32,.87-.85,0-.5-.32-.86-1.05-.86-.21,0-.37,.02-.5,.04l.24-1.87h1.75v.44Z"/><path d="M176.58,57.27v.35l-1.59,3.55h-.51l1.58-3.45h-1.79v-.45h2.3Z"/><path d="M178.24,60.17c0-.49,.27-.84,.72-1.04v-.02c-.41-.2-.58-.54-.58-.88,0-.62,.49-1.04,1.13-1.04,.71,0,1.06,.47,1.06,.96,0,.33-.15,.68-.6,.91v.02c.45,.19,.74,.53,.74,1.01,0,.68-.54,1.13-1.24,1.13-.76,0-1.22-.49-1.22-1.06Zm1.96-.02c0-.47-.31-.7-.8-.85-.43,.13-.66,.43-.66,.8-.02,.4,.26,.74,.73,.74s.73-.29,.73-.7Zm-1.36-1.95c0,.39,.27,.6,.7,.72,.31-.11,.56-.35,.56-.71,0-.31-.17-.64-.62-.64-.41,0-.63,.29-.63,.62Z"/><path d="M181.45,60.79c.11,.01,.23,0,.4-.02,.29-.04,.56-.17,.76-.38,.24-.23,.42-.58,.48-1.04h-.02c-.2,.26-.49,.42-.86,.42-.66,0-1.08-.53-1.08-1.19,0-.74,.5-1.39,1.25-1.39s1.21,.65,1.21,1.64c0,.86-.27,1.46-.63,1.83-.28,.29-.67,.47-1.06,.52-.18,.03-.34,.04-.46,.03v-.43Zm.18-2.24c0,.49,.28,.83,.7,.83,.33,0,.59-.17,.72-.41,.03-.05,.04-.11,.04-.19,0-.67-.23-1.18-.75-1.18-.42,0-.72,.4-.72,.95Z"/><path d="M187.41,57.71h-1.39l-.14,1c.08-.01,.16-.02,.3-.02,.28,0,.56,.07,.79,.21,.29,.17,.52,.51,.52,1,0,.76-.57,1.33-1.36,1.33-.4,0-.74-.12-.91-.24l.12-.4c.15,.1,.45,.22,.78,.22,.47,0,.87-.32,.87-.85,0-.5-.32-.86-1.05-.86-.21,0-.37,.02-.5,.04l.24-1.87h1.75v.44Z"/><path d="M190.29,57.71h-1.39l-.14,1c.08-.01,.16-.02,.3-.02,.28,0,.56,.07,.79,.21,.29,.17,.52,.51,.52,1,0,.76-.57,1.33-1.36,1.33-.4,0-.74-.12-.91-.24l.12-.4c.15,.1,.45,.22,.78,.22,.47,0,.87-.32,.87-.85,0-.5-.32-.86-1.05-.86-.21,0-.37,.02-.5,.04l.24-1.87h1.75v.44Z"/><path d="M225.12,61.16v-1.06h-1.7v-.35l1.63-2.49h.53v2.42h.51v.41h-.51v1.06h-.47Zm0-1.48v-1.3c0-.2,0-.41,.02-.61h-.02c-.11,.23-.2,.4-.3,.58l-.89,1.33h1.2Z"/><path d="M228.65,57.71h-1.39l-.14,1c.08-.01,.16-.02,.3-.02,.28,0,.56,.07,.79,.21,.29,.17,.52,.51,.52,1,0,.76-.57,1.33-1.36,1.33-.4,0-.74-.12-.91-.24l.12-.4c.15,.1,.45,.22,.78,.22,.47,0,.87-.32,.87-.85,0-.5-.32-.86-1.05-.86-.21,0-.37,.02-.5,.04l.24-1.87h1.75v.44Z"/><path d="M230.54,61.16v-.32l.39-.4c.93-.95,1.35-1.45,1.36-2.04,0-.4-.18-.76-.72-.76-.33,0-.61,.18-.77,.33l-.16-.37c.25-.23,.61-.4,1.03-.4,.79,0,1.12,.58,1.12,1.13,0,.72-.49,1.3-1.26,2.09l-.29,.29h1.64v.45h-2.33Z"/><path d="M235.85,59.17c0,1.33-.46,2.06-1.27,2.06-.71,0-1.2-.71-1.21-2,0-1.31,.53-2.03,1.27-2.03s1.21,.73,1.21,1.97Zm-1.98,.06c0,1.01,.29,1.59,.74,1.59,.5,0,.75-.63,.75-1.62s-.23-1.59-.74-1.59c-.43,0-.75,.56-.75,1.62Z"/><path d="M239.67,57.71h-1.39l-.14,1c.08-.01,.16-.02,.3-.02,.28,0,.56,.07,.79,.21,.29,.17,.52,.51,.52,1,0,.76-.57,1.33-1.36,1.33-.4,0-.74-.12-.91-.24l.12-.4c.15,.1,.45,.22,.78,.22,.47,0,.87-.32,.87-.85,0-.5-.32-.86-1.05-.86-.21,0-.37,.02-.5,.04l.24-1.87h1.75v.44Z"/><path d="M242.74,57.27v.35l-1.59,3.55h-.51l1.58-3.45h-1.79v-.45h2.3Z"/><path d="M244.39,60.17c0-.49,.27-.84,.72-1.04v-.02c-.41-.2-.58-.54-.58-.88,0-.62,.49-1.04,1.13-1.04,.71,0,1.06,.47,1.06,.96,0,.33-.15,.68-.6,.91v.02c.45,.19,.74,.53,.74,1.01,0,.68-.54,1.13-1.24,1.13-.76,0-1.22-.49-1.22-1.06Zm1.96-.02c0-.47-.31-.7-.8-.85-.43,.13-.66,.43-.66,.8-.02,.4,.26,.74,.73,.74s.73-.29,.73-.7Zm-1.36-1.95c0,.39,.27,.6,.7,.72,.31-.11,.56-.35,.56-.71,0-.31-.17-.64-.62-.64-.41,0-.63,.29-.63,.62Z"/><path d="M247.6,60.79c.11,.01,.23,0,.4-.02,.29-.04,.56-.17,.76-.38,.24-.23,.42-.58,.48-1.04h-.02c-.2,.26-.49,.42-.86,.42-.66,0-1.08-.53-1.08-1.19,0-.74,.5-1.39,1.25-1.39s1.21,.65,1.21,1.64c0,.86-.27,1.46-.63,1.83-.28,.29-.67,.47-1.06,.52-.18,.03-.34,.04-.46,.03v-.43Zm.18-2.24c0,.49,.28,.83,.7,.83,.33,0,.59-.17,.72-.41,.03-.05,.04-.11,.04-.19,0-.67-.23-1.18-.75-1.18-.42,0-.72,.4-.72,.95Z"/><path d="M253.56,57.71h-1.39l-.14,1c.08-.01,.16-.02,.3-.02,.28,0,.56,.07,.79,.21,.29,.17,.52,.51,.52,1,0,.76-.57,1.33-1.36,1.33-.4,0-.74-.12-.91-.24l.12-.4c.15,.1,.45,.22,.78,.22,.47,0,.87-.32,.87-.85,0-.5-.32-.86-1.05-.86-.21,0-.37,.02-.5,.04l.24-1.87h1.75v.44Z"/><path d="M256.44,57.71h-1.39l-.14,1c.08-.01,.16-.02,.3-.02,.28,0,.56,.07,.79,.21,.29,.17,.52,.51,.52,1,0,.76-.57,1.33-1.36,1.33-.4,0-.74-.12-.91-.24l.12-.4c.15,.1,.45,.22,.78,.22,.47,0,.87-.32,.87-.85,0-.5-.32-.86-1.05-.86-.21,0-.37,.02-.5,.04l.24-1.87h1.75v.44Z"/></g><g><path d="M291.62,57.33v.35l-1.59,3.55h-.51l1.58-3.45h-1.79v-.45h2.3Z"/><path d="M292.13,61.23v-.32l.39-.4c.93-.95,1.35-1.45,1.36-2.04,0-.4-.18-.76-.72-.76-.33,0-.61,.18-.77,.33l-.16-.37c.25-.23,.61-.4,1.03-.4,.79,0,1.12,.58,1.12,1.13,0,.72-.49,1.3-1.26,2.09l-.29,.29h1.64v.45h-2.33Z"/><path d="M295.01,61.23v-.32l.39-.4c.93-.95,1.35-1.45,1.36-2.04,0-.4-.18-.76-.72-.76-.33,0-.61,.18-.77,.33l-.16-.37c.25-.23,.61-.4,1.03-.4,.79,0,1.12,.58,1.12,1.13,0,.72-.49,1.3-1.26,2.09l-.29,.29h1.64v.45h-2.33Z"/><path d="M300.26,57.33v.35l-1.59,3.55h-.51l1.58-3.45h-1.79v-.45h2.3Z"/></g></svg>